<svg xmlns="http://www.w3.org/2000/svg" width="50" height="50"><path d="M25 9c-6.818 0-12.985 1.705-17.518 4.54C2.95 16.372 0 20.42 0 25c0 4.58 2.95 8.627 7.482 11.46C12.015 39.296 18.182 41 25 41c6.818 0 12.985-1.705 17.518-4.54C47.05 33.628 50 29.58 50 25c0-4.535-2.95-8.576-7.48-11.422C37.989 10.732 31.82 9 25 9zm0 2c6.48 0 12.31 1.668 16.455 4.271C45.6 17.875 48 21.335 48 25c0 3.72-2.4 7.173-6.543 9.764C37.314 37.354 31.482 39 25 39c-6.482 0-12.314-1.646-16.457-4.236C4.4 32.173 2 28.72 2 25c0-3.72 2.4-7.173 6.543-9.764C12.686 12.646 18.518 11 25 11zm-2.9 3.5-.6 5.9C20.1 26.3 12 21.6 17 15c-7.1 1.6-11.9 5.6-12 9.8.1 1.9 1.2 3.9 3 5.6 1.3 1.2 3 2.8 5 3.6-3.3-4.8 3.1-7.2 6-2 1.1-4.2 4.9-1.3 6 4 1.1-5.3 4.9-8.2 6-4 2.9-5.2 9.3-2.8 6 2 2-.8 3.7-2.4 5-3.5 1.8-1.7 2.9-3.7 3-5.6-.1-4.2-4.9-8.2-12-9.9 5 6.6-3.1 11.2-4.5 5.4l-.6-5.9-1.4 1.5h-3l-1.4-1.5z"/></svg>